<svg xmlns="http://www.w3.org/2000/svg" version="1.1" xmlns:xlink="http://www.w3.org/1999/xlink" xmlns:svgjs="http://svgjs.dev/svgjs" width="1000" height="381" viewBox="0 0 1000 381"><g transform="matrix(1,0,0,1,0.1066666666666265,-0.09991258741257525)"><svg viewBox="0 0 375 143" data-background-color="#7c4e29" preserveAspectRatio="xMidYMid meet" height="381" width="1000" xmlns="http://www.w3.org/2000/svg" xmlns:xlink="http://www.w3.org/1999/xlink"><g id="tight-bounds" transform="matrix(1,0,0,1,-0.03976036071776434,0.037667236328104536)"><svg viewBox="0 0 375.07952880859375 142.92437744140625" height="142.92437744140625" width="375.07952880859375"><g><svg></svg></g><g><svg viewBox="0 0 375.07952880859375 142.92437744140625" height="142.92437744140625" width="375.07952880859375"><g transform="matrix(1,0,0,1,-10.220239639282227,-56.140167236328125)"><path xmlns="http://www.w3.org/2000/svg" d="M10.22 191.06v-134.92h375.08v134.92h-24.636v-4.537h20.099v-125.846h-366.006v125.846h125.141l0 4.537z" fill="#ffffff" fill-rule="nonzero" stroke="none" stroke-width="1" stroke-linecap="butt" stroke-linejoin="miter" stroke-miterlimit="10" stroke-dasharray="" stroke-dashoffset="0" font-family="none" font-weight="none" font-size="none" text-anchor="none" style="mix-blend-mode: normal" data-fill-palette-color="tertiary"></path><g><path xmlns="http://www.w3.org/2000/svg" d="M161.169 188.032h-5.984v6.17h-1.676v-14.446h8.042v1.493h-6.366v5.293h5.984zM168.632 183.182v0c0.498 0 0.929 0.036 1.294 0.108v0l-0.217 1.529c-0.434-0.096-0.829-0.143-1.185-0.144v0c-0.88 0-1.631 0.355-2.254 1.064-0.619 0.709-0.929 1.595-0.929 2.657v0 5.806h-1.65v-10.821h1.364l0.186 1.998h0.074c0.402-0.712 0.887-1.256 1.455-1.633 0.567-0.376 1.188-0.564 1.862-0.564zM172.271 184.654c0.889-0.981 2.102-1.472 3.639-1.472 1.537 0 2.751 0.504 3.642 1.511 0.892 1.004 1.337 2.377 1.338 4.116 0 1.737-0.446 3.106-1.338 4.107v0c-0.892 0.99-2.117 1.485-3.677 1.485v0c-1.47 0.014-2.666-0.495-3.587-1.528-0.923-1.03-1.374-2.395-1.35-4.095v0c0-1.769 0.444-3.144 1.333-4.124zM175.888 184.575v0c-2.168 0-3.252 1.401-3.252 4.203v0c0 1.384 0.276 2.437 0.829 3.161 0.553 0.727 1.368 1.09 2.445 1.09 1.074 0 1.889-0.36 2.444-1.081 0.559-0.721 0.838-1.774 0.838-3.161 0-1.387-0.279-2.436-0.838-3.148-0.556-0.709-1.378-1.064-2.466-1.064zM192.813 187.146v7.056h-1.65v-7.004c0-0.892-0.201-1.552-0.604-1.98-0.402-0.428-1.028-0.643-1.875-0.643v0c-1.135 0-1.965 0.305-2.493 0.917-0.527 0.611-0.79 1.622-0.79 3.035v0 5.675h-1.645v-10.821h1.341l0.261 1.481h0.078c0.336-0.527 0.808-0.939 1.415-1.237 0.608-0.295 1.285-0.443 2.032-0.443v0c1.317 0 2.301 0.318 2.953 0.955 0.651 0.637 0.977 1.64 0.977 3.009zM197.936 184.654v6.365c0 0.651 0.152 1.152 0.456 1.502 0.304 0.353 0.721 0.53 1.251 0.53 0.53 0 1.033-0.067 1.511-0.2v0 1.251c-0.168 0.081-0.434 0.151-0.799 0.208-0.362 0.061-0.67 0.091-0.925 0.091v0c-2.093 0-3.139-1.101-3.139-3.304v0-6.443h-1.55v-0.791l1.55-0.681 0.69-2.315h0.955v2.514h3.14v1.273zM207.684 186.937v1.49h-4.841v-1.49zM212.612 192.699h6.366v1.503h-8.046v-14.446h8.046v1.493h-6.366v4.655h5.979v1.481h-5.979zM230.983 187.146v7.056h-1.645v-7.004c0-0.892-0.201-1.552-0.604-1.98-0.402-0.428-1.028-0.643-1.876-0.643v0c-1.135 0-1.965 0.305-2.492 0.917-0.527 0.611-0.79 1.622-0.79 3.035v0 5.675h-1.646v-10.821h1.337l0.265 1.481h0.079c0.336-0.527 0.808-0.939 1.415-1.237 0.608-0.295 1.284-0.443 2.028-0.443v0c1.317 0 2.301 0.318 2.952 0.955 0.651 0.637 0.977 1.64 0.977 3.009zM236.211 185.67c-0.512 0.741-0.769 1.799-0.769 3.174 0 1.378 0.253 2.42 0.76 3.126 0.509 0.706 1.255 1.059 2.236 1.059v0c1.117 0 1.929-0.307 2.436-0.92 0.504-0.611 0.755-1.592 0.756-2.944v0-0.343c0-1.543-0.256-2.64-0.769-3.291-0.512-0.651-1.327-0.977-2.444-0.977v0c-0.961 0-1.696 0.372-2.206 1.116zM241.63 192.751c-0.761 1.1-1.871 1.65-3.331 1.65-1.459 0-2.583-0.483-3.373-1.45v0c-0.79-0.981-1.185-2.361-1.186-4.138 0-1.777 0.395-3.161 1.186-4.151 0.79-0.987 1.908-1.481 3.352-1.48 1.444 0 2.555 0.531 3.33 1.593v0h0.135l-0.079-0.781-0.034-0.756v-4.403h1.637v15.367h-1.329l-0.217-1.451zM262.484 181.623c1.245 1.245 1.867 3.023 1.867 5.336 0 2.31-0.646 4.094-1.936 5.354-1.291 1.259-3.155 1.889-5.593 1.889v0h-3.994v-14.446h4.42c2.246 0 3.992 0.622 5.236 1.867zM254.504 192.751h2.045c1.997 0 3.501-0.492 4.511-1.476 1.007-0.984 1.511-2.429 1.511-4.333 0-1.908-0.472-3.339-1.415-4.294-0.944-0.952-2.348-1.429-4.212-1.429v0h-2.44zM271.902 194.401v0c-1.604 0-2.87-0.488-3.799-1.463v0c-0.92-0.973-1.381-2.33-1.381-4.073 0-1.74 0.428-3.122 1.285-4.146v0c0.868-1.025 2.003-1.537 3.404-1.537 1.404 0 2.501 0.446 3.292 1.337 0.79 0.894 1.185 2.07 1.185 3.526v0 1.042h-7.464c0.035 1.265 0.356 2.229 0.964 2.891 0.608 0.663 1.485 0.994 2.631 0.995 1.143 0 2.275-0.245 3.396-0.734v0 1.459c-0.564 0.249-1.11 0.428-1.637 0.538-0.527 0.11-1.152 0.165-1.876 0.165zM268.467 187.749h5.662c0-1.033-0.23-1.824-0.69-2.37-0.46-0.55-1.12-0.825-1.98-0.825-0.86 0-1.552 0.282-2.075 0.846-0.524 0.562-0.829 1.345-0.917 2.349zM286.665 183.381l-4.108 10.821h-1.919l-4.103-10.821h1.754l2.34 6.418c0.527 1.517 0.834 2.491 0.921 2.922v0h0.078c0.078-0.359 0.284-1.015 0.617-1.967 0.333-0.949 1.22-3.407 2.661-7.373v0zM292.974 194.401v0c-1.601 0-2.866-0.488-3.795-1.463v0c-0.923-0.973-1.385-2.33-1.385-4.073 0-1.74 0.428-3.122 1.285-4.146v0c0.871-1.025 2.007-1.537 3.408-1.537 1.401 0 2.497 0.446 3.287 1.337 0.79 0.894 1.185 2.07 1.186 3.526v0 1.042h-7.464c0.038 1.265 0.359 2.229 0.964 2.891 0.608 0.663 1.485 0.994 2.631 0.995 1.146 0 2.278-0.245 3.395-0.734v0 1.459c-0.562 0.249-1.106 0.428-1.632 0.538-0.527 0.11-1.154 0.165-1.88 0.165zM289.539 187.749h5.666c0-1.033-0.232-1.824-0.694-2.37-0.46-0.55-1.12-0.825-1.98-0.825-0.86 0-1.552 0.282-2.076 0.846-0.524 0.562-0.829 1.345-0.916 2.349zM299.747 178.835h1.646v15.367h-1.646zM305.591 184.654c0.889-0.981 2.102-1.472 3.639-1.472 1.537 0 2.751 0.504 3.643 1.511 0.894 1.004 1.342 2.377 1.342 4.116 0 1.737-0.447 3.106-1.342 4.107v0c-0.892 0.99-2.117 1.485-3.678 1.485v0c-1.47 0.014-2.666-0.495-3.586-1.528-0.923-1.03-1.374-2.395-1.351-4.095v0c0-1.769 0.444-3.144 1.333-4.124zM309.208 184.575v0c-2.165 0-3.248 1.401-3.248 4.203v0c0 1.384 0.276 2.437 0.83 3.161 0.55 0.727 1.363 1.09 2.44 1.09 1.077 0 1.893-0.36 2.449-1.081 0.556-0.721 0.834-1.774 0.834-3.161 0-1.387-0.278-2.436-0.834-3.148-0.556-0.709-1.379-1.064-2.471-1.064zM324.119 191.896c0.53-0.753 0.795-1.799 0.794-3.139 0-1.337-0.263-2.369-0.79-3.096-0.527-0.724-1.272-1.085-2.236-1.086v0c-1.1 0-1.897 0.304-2.393 0.912-0.498 0.608-0.754 1.585-0.768 2.931v0 0.36c0 1.523 0.252 2.611 0.755 3.266 0.504 0.657 1.316 0.986 2.436 0.985v0c0.938 0 1.672-0.378 2.202-1.133zM325.443 184.654c0.782 0.981 1.172 2.361 1.172 4.137 0 1.777-0.397 3.157-1.189 4.138-0.793 0.981-1.916 1.472-3.37 1.472-1.453 0-2.563-0.531-3.33-1.593v0h-0.122c0.081 0.666 0.122 1.266 0.122 1.802v0 4.455h-1.65v-15.684h1.342l0.23 1.481h0.078c0.79-1.12 1.91-1.68 3.361-1.68 1.453 0 2.572 0.491 3.356 1.472zM334.044 194.401v0c-1.601 0-2.866-0.488-3.795-1.463v0c-0.923-0.973-1.385-2.33-1.385-4.073 0-1.74 0.428-3.122 1.286-4.146v0c0.871-1.025 2.007-1.537 3.408-1.537 1.401 0 2.497 0.446 3.287 1.337 0.79 0.894 1.185 2.07 1.185 3.526v0 1.042h-7.464c0.038 1.265 0.36 2.229 0.969 2.891 0.605 0.663 1.481 0.994 2.627 0.995 1.146 0 2.278-0.245 3.395-0.734v0 1.459c-0.562 0.249-1.106 0.428-1.633 0.538-0.527 0.11-1.154 0.165-1.88 0.165zM330.61 187.749h5.666c0-1.033-0.232-1.824-0.695-2.37-0.46-0.55-1.12-0.825-1.98-0.825-0.86 0-1.552 0.282-2.075 0.846-0.521 0.562-0.826 1.345-0.916 2.349zM345.759 183.182v0c0.495 0 0.926 0.036 1.294 0.108v0l-0.222 1.529c-0.431-0.096-0.826-0.143-1.185-0.144v0c-0.877 0-1.627 0.355-2.249 1.064-0.622 0.709-0.934 1.595-0.934 2.657v0 5.806h-1.645v-10.821h1.363l0.183 1.998h0.078c0.402-0.712 0.887-1.256 1.454-1.633 0.567-0.376 1.188-0.564 1.863-0.564z" fill="#ffffff" fill-rule="nonzero" stroke="none" stroke-width="1" stroke-linecap="butt" stroke-linejoin="miter" stroke-miterlimit="10" stroke-dasharray="" stroke-dashoffset="0" font-family="none" font-weight="none" font-size="none" text-anchor="none" style="mix-blend-mode: normal" data-fill-palette-color="secondary"></path></g></g><g transform="matrix(1,0,0,1,29.331764404296877,46.307330804600284)"><svg viewBox="0 0 316.416 50.30971583220568" height="50.30971583220568" width="316.416"><g><svg viewBox="0 0 316.416 50.30971583220568" height="50.30971583220568" width="316.416"><g><svg viewBox="0 0 316.416 50.30971583220568" height="50.30971583220568" width="316.416"><g><svg viewBox="0 0 316.416 50.30971583220568" height="50.30971583220568" width="316.416"><g id="textblocktransform"><svg viewBox="0 0 316.416 50.30971583220568" height="50.30971583220568" width="316.416" id="textblock"><g><svg viewBox="0 0 316.416 50.30971583220568" height="50.30971583220568" width="316.416"><g transform="matrix(1,0,0,1,0,0)"><svg width="316.416" viewBox="0.6000000238418579 -37 295.57000732421875 47" height="50.30971583220568" data-palette-color="#ffffff"><path d="M19.25 0L10.85 0 0.6-34.9 8-34.9 13.6-13.7 14.7-6.5 15.5-6.5 16.6-13.7 22.1-34.9 29.3-34.9 19.25 0ZM52.55 0L48.5 0Q44.4 0 44.05-4.55L44.05-4.55 43.4-4.55Q43-2.15 41.25-0.78 39.5 0.6 36.8 0.6L36.8 0.6Q33.25 0.6 31.45-1.43 29.65-3.45 29.65-7.05L29.65-7.05Q29.65-11.35 32.27-13.3 34.9-15.25 39.6-15.25L39.6-15.25 43.4-15.25 43.4-17.3Q43.4-19.35 42.55-20.35 41.7-21.35 39.7-21.35L39.7-21.35Q37.95-21.35 36.77-20.48 35.6-19.6 34.7-18.15L34.7-18.15 30.55-21.85Q32.15-24.2 34.45-25.53 36.75-26.85 40.35-26.85L40.35-26.85Q45.5-26.85 47.95-24.45 50.4-22.05 50.4-17.3L50.4-17.3 50.4-5.45 52.55-5.45 52.55 0ZM39.6-4.3L39.6-4.3Q41.15-4.3 42.27-5.18 43.4-6.05 43.4-7.9L43.4-7.9 43.4-11.15 40.25-11.15Q36.65-11.15 36.65-8.15L36.65-8.15 36.65-7.2Q36.65-5.7 37.42-5 38.2-4.3 39.6-4.3ZM71.4 0L71.4-4.35 70.6-4.35Q70.35-3.3 69.8-2.4 69.25-1.5 68.45-0.83 67.65-0.15 66.65 0.23 65.65 0.6 64.6 0.6L64.6 0.6Q60 0.6 57.9-2.83 55.8-6.25 55.8-13.1L55.8-13.1Q55.8-19.95 57.92-23.4 60.05-26.85 64.6-26.85L64.6-26.85Q65.65-26.85 66.65-26.48 67.65-26.1 68.45-25.43 69.25-24.75 69.8-23.85 70.35-22.95 70.6-21.9L70.6-21.9 71.4-21.9 71.4-37 78.4-37 78.4 0 71.4 0ZM67.4-5.1L67.4-5.1Q69.3-5.1 70.35-5.98 71.4-6.85 71.4-8.6L71.4-8.6 71.4-17.65Q71.4-19.4 70.35-20.28 69.3-21.15 67.4-21.15L67.4-21.15Q65.45-21.15 64.27-19.93 63.1-18.7 63.1-16.45L63.1-16.45 63.1-9.8Q63.1-7.55 64.27-6.33 65.45-5.1 67.4-5.1ZM95.29-11.75L99.04-26.25 106.04-26.25 96.19 5Q95.74 6.45 95.07 7.43 94.39 8.4 93.47 8.97 92.54 9.55 91.34 9.78 90.14 10 88.59 10L88.59 10 83.89 10 83.89 4.55 89.59 4.55 90.44 1.45 81.64-26.25 88.84-26.25 92.69-11.7 93.64-5.9 94.34-5.9 95.29-11.75ZM116.29 0L109.29 0 109.29-26.25 116.29-26.25 116.29-21.8 117.09-21.8Q117.39-22.85 117.92-23.75 118.44-24.65 119.17-25.35 119.89-26.05 120.89-26.45 121.89-26.85 123.19-26.85L123.19-26.85Q125.74-26.85 127.24-25.48 128.74-24.1 129.44-21.55L129.44-21.55 130.09-21.55Q130.94-24.3 132.77-25.58 134.59-26.85 136.99-26.85L136.99-26.85Q140.34-26.85 142.12-24.45 143.89-22.05 143.89-17.85L143.89-17.85 143.89 0 136.89 0 136.89-16.5Q136.89-21.15 133.84-21.15L133.84-21.15Q132.29-21.15 131.19-20.18 130.09-19.2 130.09-17.45L130.09-17.45 130.09 0 123.09 0 123.09-16.5Q123.09-21.15 120.04-21.15L120.04-21.15Q118.49-21.15 117.39-20.18 116.29-19.2 116.29-17.45L116.29-17.45 116.29 0ZM170.84 0.6L170.84 0.6Q162.99 0.6 158.54-4.9L158.54-4.9 163.14-9.5Q166.14-5.65 170.99-5.65L170.99-5.65Q175.99-5.65 175.99-10.05L175.99-10.05Q175.99-11.85 175.09-12.85 174.19-13.85 172.29-14.25L172.29-14.25 169.09-14.85Q164.24-15.75 161.96-18.23 159.69-20.7 159.69-25.1L159.69-25.1Q159.69-30.2 162.69-32.85 165.69-35.5 171.49-35.5L171.49-35.5Q178.89-35.5 182.74-30.7L182.74-30.7 178.14-26.1Q176.84-27.7 175.21-28.48 173.59-29.25 171.39-29.25L171.39-29.25Q168.99-29.25 167.91-28.35 166.84-27.45 166.84-25.45L166.84-25.45Q166.84-23.7 167.66-22.8 168.49-21.9 170.34-21.5L170.34-21.5 173.54-20.85Q176.09-20.3 177.91-19.53 179.74-18.75 180.91-17.55 182.09-16.35 182.61-14.7 183.14-13.05 183.14-10.85L183.14-10.85Q183.14-5.25 179.99-2.33 176.84 0.6 170.84 0.6ZM188.08 0L188.08-37 195.08-37 195.08-21.8 195.88-21.8Q196.18-22.85 196.71-23.75 197.23-24.65 197.98-25.35 198.73-26.05 199.73-26.45 200.73-26.85 202.08-26.85L202.08-26.85Q205.58-26.85 207.43-24.48 209.28-22.1 209.28-17.85L209.28-17.85 209.28 0 202.28 0 202.28-16.5Q202.28-21.15 199.03-21.15L199.03-21.15Q197.43-21.15 196.26-20.18 195.08-19.2 195.08-17.45L195.08-17.45 195.08 0 188.08 0ZM227.43 0L223.18 0Q219.58 0 217.96-1.6 216.33-3.2 216.33-6.7L216.33-6.7 216.33-20.8 213.03-20.8 213.03-26.25 214.63-26.25Q216.03-26.25 216.53-26.85 217.03-27.45 217.03-28.8L217.03-28.8 217.03-33.35 223.33-33.35 223.33-26.25 227.93-26.25 227.93-20.8 223.33-20.8 223.33-5.45 227.43-5.45 227.43 0ZM242.98-11.75L246.73-26.25 253.73-26.25 243.88 5Q243.43 6.45 242.75 7.43 242.08 8.4 241.15 8.97 240.23 9.55 239.03 9.78 237.83 10 236.28 10L236.28 10 231.58 10 231.58 4.55 237.28 4.55 238.13 1.45 229.33-26.25 236.53-26.25 240.38-11.7 241.33-5.9 242.03-5.9 242.98-11.75ZM263.98 0L256.98 0 256.98-26.25 263.98-26.25 263.98-20.65 264.78-20.65Q264.93-21.75 265.28-22.78 265.63-23.8 266.25-24.58 266.88-25.35 267.83-25.8 268.78-26.25 270.08-26.25L270.08-26.25 271.33-26.25 271.33-19.15 269.53-19.15Q266.68-19.15 265.33-18.35 263.98-17.55 263.98-15.3L263.98-15.3 263.98 0ZM296.17 0L292.12 0Q288.02 0 287.67-4.55L287.67-4.55 287.02-4.55Q286.62-2.15 284.87-0.78 283.12 0.6 280.42 0.6L280.42 0.6Q276.87 0.6 275.07-1.43 273.27-3.45 273.27-7.05L273.27-7.05Q273.27-11.35 275.9-13.3 278.52-15.25 283.22-15.25L283.22-15.25 287.02-15.25 287.02-17.3Q287.02-19.35 286.17-20.35 285.32-21.35 283.32-21.35L283.32-21.35Q281.57-21.35 280.4-20.48 279.22-19.6 278.32-18.15L278.32-18.15 274.17-21.85Q275.77-24.2 278.07-25.53 280.37-26.85 283.97-26.85L283.97-26.85Q289.12-26.85 291.57-24.45 294.02-22.05 294.02-17.3L294.02-17.3 294.02-5.45 296.17-5.45 296.17 0ZM283.22-4.3L283.22-4.3Q284.77-4.3 285.9-5.18 287.02-6.05 287.02-7.9L287.02-7.9 287.02-11.15 283.87-11.15Q280.27-11.15 280.27-8.15L280.27-8.15 280.27-7.2Q280.27-5.7 281.05-5 281.82-4.3 283.22-4.3Z" opacity="1" transform="matrix(1,0,0,1,0,0)" fill="#ffffff" class="wordmark-text-0" data-fill-palette-color="primary" id="text-0"></path></svg></g></svg></g></svg></g></svg></g></svg></g></svg></g></svg></g></svg></g><defs></defs></svg><rect width="375.07952880859375" height="142.92437744140625" fill="none" stroke="none" visibility="hidden"></rect></g></svg></g></svg>